<svg width="24" height="24" viewBox="0 0 24 24" fill="none" xmlns="http://www.w3.org/2000/svg">
<mask id="mask0_170_2294" style="mask-type:alpha" maskUnits="userSpaceOnUse" x="0" y="0" width="24" height="24">
<rect width="24" height="24" fill="#D9D9D9"/>
</mask>
<g mask="url(#mask0_170_2294)">
<path d="M11.2167 12.9V16.1667C11.2167 16.4028 11.2968 16.6007 11.4571 16.7604C11.6174 16.9201 11.816 17 12.0529 17C12.2899 17 12.4875 16.9201 12.6458 16.7604C12.8042 16.6007 12.8833 16.4028 12.8833 16.1667V12.9H16.1667C16.4028 12.9 16.6007 12.8199 16.7604 12.6596C16.9201 12.4993 17 12.3007 17 12.0638C17 11.8268 16.9201 11.6292 16.7604 11.4709C16.6007 11.3125 16.4028 11.2334 16.1667 11.2334H12.8833V7.83333C12.8833 7.59723 12.8032 7.39931 12.6429 7.23958C12.4826 7.07986 12.284 7 12.0471 7C11.8101 7 11.6125 7.07986 11.4542 7.23958C11.2958 7.39931 11.2167 7.59723 11.2167 7.83333V11.2334H7.83333C7.59723 11.2334 7.39931 11.3135 7.23958 11.4738C7.07986 11.634 7 11.8327 7 12.0696C7 12.3065 7.07986 12.5042 7.23958 12.6625C7.39931 12.8208 7.59723 12.9 7.83333 12.9H11.2167ZM12.0044 22C10.6241 22 9.32684 21.7375 8.11278 21.2125C6.89871 20.6875 5.83889 19.9722 4.93333 19.0667C4.02778 18.1611 3.3125 17.1009 2.7875 15.886C2.2625 14.6711 2 13.373 2 11.9917C2 10.6103 2.2625 9.31223 2.7875 8.09735C3.3125 6.88245 4.02778 5.825 4.93333 4.925C5.83889 4.025 6.89912 3.3125 8.114 2.7875C9.3289 2.2625 10.627 2 12.0083 2C13.3897 2 14.6878 2.2625 15.9027 2.7875C17.1176 3.3125 18.175 4.025 19.075 4.925C19.975 5.825 20.6875 6.88333 21.2125 8.1C21.7375 9.31667 22 10.6152 22 11.9956C22 13.3759 21.7375 14.6732 21.2125 15.8872C20.6875 17.1013 19.975 18.1601 19.075 19.0636C18.175 19.9671 17.1167 20.6824 15.9 21.2094C14.6833 21.7365 13.3848 22 12.0044 22Z" fill="#1C1B1F"/>
</g>
</svg>
