<svg width="35" height="35" viewBox="0 0 35 35" fill="none" xmlns="http://www.w3.org/2000/svg">
<mask id="mask0_504_2163" style="mask-type:alpha" maskUnits="userSpaceOnUse" x="0" y="0" width="35" height="35">
<rect width="35" height="35" transform="matrix(-1 0 0 1 35 0)" fill="#D9D9D9"/>
</mask>
<g mask="url(#mask0_504_2163)">
<path d="M20.7233 23.623C20.9078 23.4412 21 23.2258 21 22.977C21 22.7286 20.9078 22.5135 20.7233 22.3316L15.3188 17.0022L20.7418 11.6546C20.9139 11.4848 21 11.2726 21 11.018C21 10.7633 20.9078 10.5451 20.7233 10.3632C20.5389 10.1813 20.3205 10.0903 20.0681 10.0903C19.8163 10.0903 19.5982 10.1813 19.4137 10.3632L13.2161 16.4929C13.1423 16.5657 13.0899 16.6445 13.0589 16.7294C13.0284 16.8142 13.0132 16.9052 13.0132 17.0022C13.0132 17.0992 13.0284 17.1902 13.0589 17.275C13.0899 17.3599 13.1423 17.4387 13.2161 17.5115L19.4321 23.6412C19.6043 23.811 19.8163 23.8959 20.0681 23.8959C20.3205 23.8959 20.5389 23.8049 20.7233 23.623Z" fill="black" fill-opacity="0.8"/>
</g>
</svg>
