<svg width="80" height="64" viewBox="0 0 80 64" fill="none" xmlns="http://www.w3.org/2000/svg">
<path d="M65.903 55.9177H13.9794C12.881 55.9177 11.9824 56.8164 11.9824 57.9147V61.9089C11.9824 63.0072 12.881 63.9059 13.9794 63.9059H65.903C67.0014 63.9059 67.9 63.0072 67.9 61.9089V57.9147C67.9 56.8164 67.0014 55.9177 65.903 55.9177ZM73.8912 15.9765C70.5836 15.9765 67.9 18.66 67.9 21.9677C67.9 22.8539 68.0997 23.6776 68.4492 24.439L59.4125 29.856C57.4904 31.0044 55.0065 30.3553 53.8956 28.4082L43.7231 10.6094C45.0587 9.511 45.9324 7.86342 45.9324 5.99118C45.9324 2.68355 43.2488 0 39.9412 0C36.6336 0 33.95 2.68355 33.95 5.99118C33.95 7.86342 34.8237 9.511 36.1593 10.6094L25.9867 28.4082C24.8759 30.3553 22.3796 31.0044 20.4699 29.856L11.4456 24.439C11.7827 23.6901 11.9948 22.8539 11.9948 21.9677C11.9948 18.66 9.31129 15.9765 6.00366 15.9765C2.69603 15.9765 0 18.66 0 21.9677C0 25.2753 2.68355 27.9588 5.99118 27.9588C6.3157 27.9588 6.64022 27.9089 6.95226 27.859L15.9765 51.9236H63.9059L72.9301 27.859C73.2422 27.9089 73.5667 27.9588 73.8912 27.9588C77.1988 27.9588 79.8824 25.2753 79.8824 21.9677C79.8824 18.66 77.1988 15.9765 73.8912 15.9765Z" fill="#F9E31D"/>
</svg>
