<svg width="28" height="28" viewBox="0 0 28 28" fill="none" xmlns="http://www.w3.org/2000/svg">
<mask id="mask0_498_28" style="mask-type:alpha" maskUnits="userSpaceOnUse" x="0" y="0" width="28" height="28">
<rect width="28" height="28" fill="#2294FF"/>
</mask>
<g mask="url(#mask0_498_28)">
<path d="M5.83326 24.5001C5.5027 24.5001 5.22542 24.3881 5.00142 24.1641C4.7782 23.9409 4.66659 23.664 4.66659 23.3334V13.5626L3.49992 14.4667C3.2277 14.6612 2.93604 14.739 2.62492 14.7001C2.31381 14.6612 2.06104 14.5056 1.86659 14.2334C1.67215 13.9612 1.59437 13.6695 1.63326 13.3584C1.67215 13.0473 1.81798 12.7945 2.07076 12.6001L4.66659 10.6167V8.16675C4.66659 7.83619 4.7782 7.55892 5.00142 7.33492C5.22542 7.11169 5.5027 7.00008 5.83326 7.00008C6.16381 7.00008 6.44109 7.11169 6.66509 7.33492C6.88831 7.55892 6.99992 7.83619 6.99992 8.16675V8.83758L13.2999 4.05425C13.3971 3.97647 13.5041 3.91308 13.6208 3.86408C13.7374 3.81586 13.8638 3.79175 13.9999 3.79175C14.136 3.79175 14.2624 3.81586 14.3791 3.86408C14.4958 3.91308 14.6027 3.97647 14.6999 4.05425L25.9291 12.6001C26.1819 12.7945 26.3277 13.0473 26.3666 13.3584C26.4055 13.6695 26.3277 13.9612 26.1333 14.2334C25.9388 14.4862 25.686 14.632 25.3749 14.6709C25.0638 14.7098 24.7819 14.632 24.5291 14.4376L23.3333 13.5626V23.3334C23.3333 23.664 23.2213 23.9409 22.9973 24.1641C22.774 24.3881 22.4971 24.5001 22.1666 24.5001H5.83326ZM6.99992 22.1667H12.8333V18.6667C12.8333 18.3362 12.9453 18.0589 13.1693 17.8349C13.3925 17.6117 13.6694 17.5001 13.9999 17.5001C14.3305 17.5001 14.6078 17.6117 14.8318 17.8349C15.055 18.0589 15.1666 18.3362 15.1666 18.6667V22.1667H20.9999V11.7834L13.9999 6.44591L6.99992 11.7834V22.1667Z" fill="#2294FF"/>
</g>
</svg>
