<svg width="25" height="21" viewBox="0 0 25 21" fill="none" xmlns="http://www.w3.org/2000/svg">
<path d="M4.20972 20.7083C3.87917 20.7083 3.60189 20.5963 3.37789 20.3723C3.15467 20.1491 3.04306 19.8722 3.04306 19.5417V9.77083L1.87639 10.675C1.60417 10.8694 1.3125 10.9472 1.00139 10.9083C0.690278 10.8694 0.4375 10.7139 0.243056 10.4417C0.0486112 10.1694 -0.0291667 9.87778 0.00972222 9.56667C0.0486111 9.25556 0.194444 9.00278 0.447222 8.80833L3.04306 6.825V4.375C3.04306 4.04444 3.15467 3.76717 3.37789 3.54317C3.60189 3.31994 3.87917 3.20833 4.20972 3.20833C4.54028 3.20833 4.81756 3.31994 5.04156 3.54317C5.26478 3.76717 5.37639 4.04444 5.37639 4.375V5.04583L11.6764 0.2625C11.7736 0.184722 11.8806 0.121333 11.9972 0.0723334C12.1139 0.0241112 12.2403 0 12.3764 0C12.5125 0 12.6389 0.0241112 12.7556 0.0723334C12.8722 0.121333 12.9792 0.184722 13.0764 0.2625L24.3056 8.80833C24.5583 9.00278 24.7042 9.25556 24.7431 9.56667C24.7819 9.87778 24.7042 10.1694 24.5097 10.4417C24.3153 10.6944 24.0625 10.8403 23.7514 10.8792C23.4403 10.9181 23.1583 10.8403 22.9056 10.6458L21.7097 9.77083V19.5417C21.7097 19.8722 21.5977 20.1491 21.3737 20.3723C21.1505 20.5963 20.8736 20.7083 20.5431 20.7083H4.20972ZM5.37639 18.375H11.2097V14.875C11.2097 14.5444 11.3217 14.2672 11.5457 14.0432C11.7689 13.8199 12.0458 13.7083 12.3764 13.7083C12.7069 13.7083 12.9842 13.8199 13.2082 14.0432C13.4314 14.2672 13.5431 14.5444 13.5431 14.875V18.375H19.3764V7.99167L12.3764 2.65417L5.37639 7.99167V18.375Z" fill="#AEAEAE"/>
</svg>
