<svg width="28" height="28" viewBox="0 0 28 28" fill="none" xmlns="http://www.w3.org/2000/svg">
<mask id="mask0_895_2950" style="mask-type:alpha" maskUnits="userSpaceOnUse" x="0" y="0" width="28" height="28">
<rect width="28" height="28" fill="#2294FF"/>
</mask>
<g mask="url(#mask0_895_2950)">
<path d="M5.83326 24.5C5.5027 24.5 5.22542 24.388 5.00142 24.164C4.7782 23.9407 4.66659 23.6638 4.66659 23.3333V13.5625L3.49992 14.4666C3.2277 14.6611 2.93604 14.7388 2.62492 14.7C2.31381 14.6611 2.06104 14.5055 1.86659 14.2333C1.67215 13.9611 1.59437 13.6694 1.63326 13.3583C1.67215 13.0472 1.81798 12.7944 2.07076 12.6L4.66659 10.6166V8.16663C4.66659 7.83607 4.7782 7.55879 5.00142 7.33479C5.22542 7.11157 5.5027 6.99996 5.83326 6.99996C6.16381 6.99996 6.44109 7.11157 6.66509 7.33479C6.88831 7.55879 6.99992 7.83607 6.99992 8.16663V8.83746L13.2999 4.05413C13.3971 3.97635 13.5041 3.91296 13.6208 3.86396C13.7374 3.81574 13.8638 3.79163 13.9999 3.79163C14.136 3.79163 14.2624 3.81574 14.3791 3.86396C14.4958 3.91296 14.6027 3.97635 14.6999 4.05413L25.9291 12.6C26.1819 12.7944 26.3277 13.0472 26.3666 13.3583C26.4055 13.6694 26.3277 13.9611 26.1333 14.2333C25.9388 14.4861 25.686 14.6319 25.3749 14.6708C25.0638 14.7097 24.7819 14.6319 24.5291 14.4375L23.3333 13.5625V23.3333C23.3333 23.6638 23.2213 23.9407 22.9973 24.164C22.774 24.388 22.4971 24.5 22.1666 24.5H5.83326ZM6.99992 22.1666H12.8333V18.6666C12.8333 18.3361 12.9453 18.0588 13.1693 17.8348C13.3925 17.6116 13.6694 17.5 13.9999 17.5C14.3305 17.5 14.6078 17.6116 14.8318 17.8348C15.055 18.0588 15.1666 18.3361 15.1666 18.6666V22.1666H20.9999V11.7833L13.9999 6.44579L6.99992 11.7833V22.1666Z" fill="#AEAEAE"/>
</g>
</svg>
