<svg width="24" height="24" viewBox="0 0 24 24" fill="none" xmlns="http://www.w3.org/2000/svg">
<path d="M4.62 18.12C5.64 17.34 6.78 16.7248 8.04 16.2744C9.3 15.8248 10.62 15.6 12 15.6C13.38 15.6 14.7 15.8248 15.96 16.2744C17.22 16.7248 18.36 17.34 19.38 18.12C20.08 17.3 20.6252 16.37 21.0156 15.33C21.4052 14.29 21.6 13.18 21.6 12C21.6 9.34 20.6652 7.0748 18.7956 5.2044C16.9252 3.3348 14.66 2.4 12 2.4C9.34 2.4 7.0752 3.3348 5.2056 5.2044C3.3352 7.0748 2.4 9.34 2.4 12C2.4 13.18 2.5952 14.29 2.9856 15.33C3.3752 16.37 3.92 17.3 4.62 18.12ZM12 13.2C10.82 13.2 9.8248 12.7952 9.0144 11.9856C8.2048 11.1752 7.8 10.18 7.8 9C7.8 7.82 8.2048 6.8248 9.0144 6.0144C9.8248 5.2048 10.82 4.8 12 4.8C13.18 4.8 14.1752 5.2048 14.9856 6.0144C15.7952 6.8248 16.2 7.82 16.2 9C16.2 10.18 15.7952 11.1752 14.9856 11.9856C14.1752 12.7952 13.18 13.2 12 13.2ZM12 24C10.34 24 8.78 23.6848 7.32 23.0544C5.86 22.4248 4.59 21.57 3.51 20.49C2.43 19.41 1.5752 18.14 0.9456 16.68C0.3152 15.22 0 13.66 0 12C0 10.34 0.3152 8.78 0.9456 7.32C1.5752 5.86 2.43 4.59 3.51 3.51C4.59 2.43 5.86 1.5748 7.32 0.9444C8.78 0.3148 10.34 0 12 0C13.66 0 15.22 0.3148 16.68 0.9444C18.14 1.5748 19.41 2.43 20.49 3.51C21.57 4.59 22.4248 5.86 23.0544 7.32C23.6848 8.78 24 10.34 24 12C24 13.66 23.6848 15.22 23.0544 16.68C22.4248 18.14 21.57 19.41 20.49 20.49C19.41 21.57 18.14 22.4248 16.68 23.0544C15.22 23.6848 13.66 24 12 24ZM12 21.6C13.06 21.6 14.06 21.4452 15 21.1356C15.94 20.8252 16.8 20.38 17.58 19.8C16.8 19.22 15.94 18.7748 15 18.4644C14.06 18.1548 13.06 18 12 18C10.94 18 9.94 18.1548 9 18.4644C8.06 18.7748 7.2 19.22 6.42 19.8C7.2 20.38 8.06 20.8252 9 21.1356C9.94 21.4452 10.94 21.6 12 21.6ZM12 10.8C12.52 10.8 12.95 10.63 13.29 10.29C13.63 9.95 13.8 9.52 13.8 9C13.8 8.48 13.63 8.05 13.29 7.71C12.95 7.37 12.52 7.2 12 7.2C11.48 7.2 11.05 7.37 10.71 7.71C10.37 8.05 10.2 8.48 10.2 9C10.2 9.52 10.37 9.95 10.71 10.29C11.05 10.63 11.48 10.8 12 10.8Z" fill="#2294FF"/>
</svg>
