<svg width="28" height="28" viewBox="0 0 28 28" fill="none" xmlns="http://www.w3.org/2000/svg">
<mask id="mask0_498_38" style="mask-type:alpha" maskUnits="userSpaceOnUse" x="0" y="0" width="28" height="28">
<rect width="28" height="28" fill="#D9D9D9"/>
</mask>
<g mask="url(#mask0_498_38)">
<path d="M6.82492 19.9499C7.81659 19.1916 8.92492 18.5935 10.1499 18.1556C11.3749 17.7185 12.6583 17.4999 13.9999 17.4999C15.3416 17.4999 16.6249 17.7185 17.8499 18.1556C19.0749 18.5935 20.1833 19.1916 21.1749 19.9499C21.8555 19.1527 22.3855 18.2485 22.7651 17.2374C23.1439 16.2263 23.3333 15.1471 23.3333 13.9999C23.3333 11.4138 22.4244 9.21153 20.6068 7.39309C18.7883 5.57542 16.586 4.66659 13.9999 4.66659C11.4138 4.66659 9.21192 5.57542 7.39425 7.39309C5.57581 9.21153 4.66659 11.4138 4.66659 13.9999C4.66659 15.1471 4.85636 16.2263 5.23592 17.2374C5.6147 18.2485 6.14436 19.1527 6.82492 19.9499ZM13.9999 15.1666C12.8527 15.1666 11.8851 14.773 11.0973 13.9859C10.3101 13.198 9.91659 12.2305 9.91659 11.0833C9.91659 9.93603 10.3101 8.96847 11.0973 8.18059C11.8851 7.39347 12.8527 6.99992 13.9999 6.99992C15.1471 6.99992 16.1147 7.39347 16.9026 8.18059C17.6897 8.96847 18.0833 9.93603 18.0833 11.0833C18.0833 12.2305 17.6897 13.198 16.9026 13.9859C16.1147 14.773 15.1471 15.1666 13.9999 15.1666ZM13.9999 25.6666C12.386 25.6666 10.8694 25.3601 9.44992 24.7473C8.03048 24.1351 6.79575 23.3041 5.74575 22.2541C4.69575 21.2041 3.8647 19.9694 3.25259 18.5499C2.6397 17.1305 2.33325 15.6138 2.33325 13.9999C2.33325 12.386 2.6397 10.8694 3.25259 9.44992C3.8647 8.03048 4.69575 6.79575 5.74575 5.74575C6.79575 4.69575 8.03048 3.86431 9.44992 3.25142C10.8694 2.63931 12.386 2.33325 13.9999 2.33325C15.6138 2.33325 17.1305 2.63931 18.5499 3.25142C19.9694 3.86431 21.2041 4.69575 22.2541 5.74575C23.3041 6.79575 24.1351 8.03048 24.7473 9.44992C25.3601 10.8694 25.6666 12.386 25.6666 13.9999C25.6666 15.6138 25.3601 17.1305 24.7473 18.5499C24.1351 19.9694 23.3041 21.2041 22.2541 22.2541C21.2041 23.3041 19.9694 24.1351 18.5499 24.7473C17.1305 25.3601 15.6138 25.6666 13.9999 25.6666ZM13.9999 23.3333C15.0305 23.3333 16.0027 23.1828 16.9166 22.8818C17.8305 22.58 18.6666 22.1471 19.4249 21.5833C18.6666 21.0194 17.8305 20.5865 16.9166 20.2848C16.0027 19.9838 15.0305 19.8333 13.9999 19.8333C12.9694 19.8333 11.9971 19.9838 11.0833 20.2848C10.1694 20.5865 9.33325 21.0194 8.57492 21.5833C9.33325 22.1471 10.1694 22.58 11.0833 22.8818C11.9971 23.1828 12.9694 23.3333 13.9999 23.3333ZM13.9999 12.8333C14.5055 12.8333 14.9235 12.668 15.2541 12.3374C15.5846 12.0069 15.7499 11.5888 15.7499 11.0833C15.7499 10.5777 15.5846 10.1596 15.2541 9.82909C14.9235 9.49853 14.5055 9.33325 13.9999 9.33325C13.4944 9.33325 13.0763 9.49853 12.7458 9.82909C12.4152 10.1596 12.2499 10.5777 12.2499 11.0833C12.2499 11.5888 12.4152 12.0069 12.7458 12.3374C13.0763 12.668 13.4944 12.8333 13.9999 12.8333Z" fill="#AEAEAE"/>
</g>
</svg>
