<svg width="40" height="40" viewBox="0 0 40 40" fill="none" xmlns="http://www.w3.org/2000/svg">
<mask id="mask0_159_2197" style="mask-type:alpha" maskUnits="userSpaceOnUse" x="0" y="0" width="40" height="40">
<rect width="40" height="40" fill="#D9D9D9"/>
</mask>
<g mask="url(#mask0_159_2197)">
<path d="M19.9893 24.5111C19.7974 24.5111 19.6134 24.4759 19.4372 24.4054C19.261 24.3349 19.0975 24.2251 18.9466 24.0759L12.3965 17.5257C12.1213 17.2484 11.9894 16.9001 12.0007 16.4808C12.0119 16.0614 12.1552 15.7121 12.4303 15.4327C12.7355 15.1232 13.0873 14.9797 13.4856 15.0023C13.884 15.0248 14.2283 15.1737 14.5185 15.4488L19.9907 20.9211L25.4742 15.4376C25.7536 15.1624 26.1046 15.0192 26.5271 15.0079C26.9497 14.9967 27.2985 15.1455 27.5737 15.4543C27.8789 15.7331 28.0202 16.0811 27.9977 16.4984C27.9751 16.9156 27.8263 17.2694 27.5511 17.5595L21.0348 24.0759C20.8834 24.2251 20.7192 24.3349 20.5424 24.4054C20.3655 24.4759 20.1812 24.5111 19.9893 24.5111Z" fill="#1C1B1F"/>
</g>
</svg>
